<svg xmlns="http://www.w3.org/2000/svg" xmlns:xlink="http://www.w3.org/1999/xlink"><symbol viewBox="0 0 24 24" id="mouse-left" xmlns="http://www.w3.org/2000/svg"><path stroke="currentColor" d="M13 2v8h6V8c0-3.309-2.691-6-6-6zM5 16c0 3.309 2.691 6 6 6h2c3.309 0 6-2.691 6-6v-4H5v4zm0-8v2h6V2C7.691 2 5 4.691 5 8z"/><path fill="currentColor" d="M13 2zM5 16zm0-8v2h6V2C7.691 2 5 4.691 5 8z"/></symbol><symbol viewBox="0 0 24 24" id="mouse-right" xmlns="http://www.w3.org/2000/svg"><path stroke="currentColor" d="M13 2v8h6V8c0-3.309-2.691-6-6-6zM5 16c0 3.309 2.691 6 6 6h2c3.309 0 6-2.691 6-6v-4H5v4zm0-8v2h6V2C7.691 2 5 4.691 5 8z"/><path fill="currentColor" d="M13 2v8h6V8c0-3.309-2.691-6-6-6zM5 16z"/></symbol></svg>